<svg xmlns="http://www.w3.org/2000/svg" xmlns:xlink="http://www.w3.org/1999/xlink" width="275pt" height="74pt" viewBox="0 0 275 74"><g id="graph0" class="graph" transform="scale(1 1) rotate(0) translate(4 70)"><title>G</title><polygon fill="#fff" stroke="transparent" points="-4 4 -4 -70 271 -70 271 4 -4 4"/><g id="node1" class="node"><title>leaf140728778300816</title><polygon fill="none" stroke="#000" stroke-width="0" points="15 -66 0 -66 0 0 15 0 15 -66"/><text x="0" y="-55.8" fill="#444443" font-family="Consolas" font-size="9" text-anchor="start">2x1</text><polygon fill="#cfe2d4" stroke="transparent" points=".5 -13 .5 -53 15.5 -53 15.5 -13 .5 -13"/><polygon fill="none" stroke="#000" points=".5 -13 .5 -53 15.5 -53 15.5 -13 .5 -13"/><text x="4.5" y="-30.3" fill="#444443" font-family="Consolas" font-size="12" text-anchor="start">b</text></g><g id="node2" class="node"><title>leaf140728778299856</title><polygon fill="none" stroke="#000" stroke-width="0" points="34.5 -51 16.5 -51 16.5 -15 34.5 -15 34.5 -51"/><text x="22" y="-29.9" fill="#444443" font-family="Consolas" font-size="12" text-anchor="start">=</text></g><g id="node3" class="node"><title>leaf140728778299376</title><polygon fill="none" stroke="#000" stroke-width="0" points="75.5 -66 35.5 -66 35.5 0 75.5 0 75.5 -66"/><text x="47.5" y="-55.8" fill="#444443" font-family="Consolas" font-size="9" text-anchor="start">2x2</text><polygon fill="#cfe2d4" stroke="transparent" points="35.5 -13 35.5 -53 75.5 -53 75.5 -13 35.5 -13"/><polygon fill="none" stroke="#000" points="35.5 -13 35.5 -53 75.5 -53 75.5 -13 35.5 -13"/><text x="52" y="-30.3" fill="#444443" font-family="Consolas" font-size="12" text-anchor="start">W</text></g><g id="node4" class="node"><title>leaf140728778300384</title><polygon fill="none" stroke="#000" stroke-width="0" points="90.5 -51 76.5 -51 76.5 -15 90.5 -15 90.5 -51"/><text x="80" y="-29.9" fill="#444443" font-family="Consolas" font-size="12" text-anchor="start">@</text></g><g id="node5" class="node"><title>leaf140728778300960</title><polygon fill="none" stroke="#000" stroke-width="0" points="107 -66 92 -66 92 0 107 0 107 -66"/><text x="92" y="-55.8" fill="#444443" font-family="Consolas" font-size="9" text-anchor="start">2x1</text><polygon fill="#cfe2d4" stroke="transparent" points="92.5 -13 92.5 -53 107.5 -53 107.5 -13 92.5 -13"/><polygon fill="none" stroke="#000" points="92.5 -13 92.5 -53 107.5 -53 107.5 -13 92.5 -13"/><text x="96.5" y="-30.3" fill="#444443" font-family="Consolas" font-size="12" text-anchor="start">b</text></g><g id="node6" class="node"><title>leaf140728778300912</title><polygon fill="none" stroke="#000" stroke-width="0" points="137 -51 108 -51 108 -15 137 -15 137 -51"/><text x="119" y="-29.9" fill="#444443" font-family="Consolas" font-size="12" text-anchor="start">+</text></g><g id="node7" class="node"><title>leaf140728778301008</title><polygon fill="none" stroke="#000" stroke-width="0" points="178.5 -53.5 138.5 -53.5 138.5 -12.5 178.5 -12.5 178.5 -53.5"/><text x="155.5" y="-42.8" fill="#444443" font-family="Consolas" font-size="9" text-anchor="start">2</text><polygon fill="#fefecd" stroke="transparent" points="138.5 -25 138.5 -40 178.5 -40 178.5 -25 138.5 -25"/><polygon fill="none" stroke="#000" points="138.5 -25 138.5 -40 178.5 -40 178.5 -25 138.5 -25"/><text x="155" y="-28.8" fill="#444443" font-family="Consolas" font-size="12" text-anchor="start">h</text></g><g id="node8" class="node"><title>leaf140728778301104</title><polygon fill="none" stroke="#000" stroke-width="0" points="187 -51 180 -51 180 -15 187 -15 187 -51"/><text x="180" y="-29.9" fill="#444443" font-family="Consolas" font-size="12" text-anchor="start">.</text></g><g id="node9" class="node"><title>leaf140728778301296</title><polygon fill="none" stroke="#000" stroke-width="0" points="209 -51 188 -51 188 -15 209 -15 209 -51"/><text x="188" y="-29.9" fill="#444443" font-family="Consolas" font-size="12" text-anchor="start">dot</text></g><g id="node10" class="node"><title>leaf140728778301392</title><polygon fill="none" stroke="#000" stroke-width="0" points="217 -51 210 -51 210 -15 217 -15 217 -51"/><text x="210" y="-29.9" fill="#444443" font-family="Consolas" font-size="12" text-anchor="start">(</text></g><g id="node11" class="node"><title>leaf140728778298512</title><polygon fill="none" stroke="#000" stroke-width="0" points="258.5 -53.5 218.5 -53.5 218.5 -12.5 258.5 -12.5 258.5 -53.5"/><text x="235.5" y="-42.8" fill="#444443" font-family="Consolas" font-size="9" text-anchor="start">2</text><polygon fill="#fefecd" stroke="transparent" points="218.5 -25 218.5 -40 258.5 -40 258.5 -25 218.5 -25"/><polygon fill="none" stroke="#000" points="218.5 -25 218.5 -40 258.5 -40 258.5 -25 218.5 -25"/><text x="235" y="-28.8" fill="#444443" font-family="Consolas" font-size="12" text-anchor="start">h</text></g><g id="node12" class="node"><title>leaf140728640009264</title><polygon fill="none" stroke="#000" stroke-width="0" points="267 -51 260 -51 260 -15 267 -15 267 -51"/><text x="260" y="-29.9" fill="#444443" font-family="Consolas" font-size="12" text-anchor="start">)</text></g></g></svg>