<svg xmlns="http://www.w3.org/2000/svg" xmlns:xlink="http://www.w3.org/1999/xlink" width="148pt" height="74pt" viewBox="0 0 148 74"><g id="graph0" class="graph" transform="scale(1 1) rotate(0) translate(4 70)"><title>G</title><polygon fill="#fff" stroke="transparent" points="-4 4 -4 -70 144 -70 144 4 -4 4"/><g id="node1" class="node"><title>leaf140728778297408</title><polygon fill="none" stroke="#000" stroke-width="0" points="15 -66 0 -66 0 0 15 0 15 -66"/><text x="0" y="-55.8" fill="#444443" font-family="Consolas" font-size="9" text-anchor="start">2x1</text><polygon fill="#cfe2d4" stroke="transparent" points=".5 -13 .5 -53 15.5 -53 15.5 -13 .5 -13"/><polygon fill="none" stroke="#000" points=".5 -13 .5 -53 15.5 -53 15.5 -13 .5 -13"/><text x="4.5" y="-30.3" fill="#444443" font-family="Consolas" font-size="12" text-anchor="start">a</text></g><g id="node2" class="node"><title>leaf140728778297504</title><polygon fill="none" stroke="#000" stroke-width="0" points="34.5 -51 16.5 -51 16.5 -15 34.5 -15 34.5 -51"/><text x="22" y="-29.9" fill="#444443" font-family="Consolas" font-size="12" text-anchor="start">=</text></g><g id="node3" class="node"><title>leaf140728778299904</title><polygon fill="none" stroke="#000" stroke-width="0" points="69.5 -51 35.5 -51 35.5 -15 69.5 -15 69.5 -51"/><text x="35.5" y="-29.9" fill="#444443" font-family="Consolas" font-size="12" text-anchor="start">torch</text></g><g id="node4" class="node"><title>leaf140728778300000</title><polygon fill="none" stroke="#000" stroke-width="0" points="78 -51 71 -51 71 -15 78 -15 78 -51"/><text x="71" y="-29.9" fill="#444443" font-family="Consolas" font-size="12" text-anchor="start">.</text></g><g id="node5" class="node"><title>leaf140728778300048</title><polygon fill="none" stroke="#000" stroke-width="0" points="107.5 -51 79.5 -51 79.5 -15 107.5 -15 107.5 -51"/><text x="79.5" y="-29.9" fill="#444443" font-family="Consolas" font-size="12" text-anchor="start">relu</text></g><g id="node6" class="node"><title>leaf140728778300144</title><polygon fill="none" stroke="#000" stroke-width="0" points="116 -51 109 -51 109 -15 116 -15 116 -51"/><text x="109" y="-29.9" fill="#444443" font-family="Consolas" font-size="12" text-anchor="start">(</text></g><g id="node7" class="node"><title>leaf140728778300192</title><polygon fill="none" stroke="#000" stroke-width="0" points="132 -66 117 -66 117 0 132 0 132 -66"/><text x="117" y="-55.8" fill="#444443" font-family="Consolas" font-size="9" text-anchor="start">2x1</text><polygon fill="#cfe2d4" stroke="transparent" points="117.5 -13 117.5 -53 132.5 -53 132.5 -13 117.5 -13"/><polygon fill="none" stroke="#000" points="117.5 -13 117.5 -53 132.5 -53 132.5 -13 117.5 -13"/><text x="121.5" y="-30.3" fill="#444443" font-family="Consolas" font-size="12" text-anchor="start">x</text></g><g id="node8" class="node"><title>leaf140728778300288</title><polygon fill="none" stroke="#000" stroke-width="0" points="140 -51 133 -51 133 -15 140 -15 140 -51"/><text x="133" y="-29.9" fill="#444443" font-family="Consolas" font-size="12" text-anchor="start">)</text></g></g></svg>